# xmcd
#
# Track frame offsets: 
#        170
#        17965
#        39647
#        61152
#        76840
#        89997
#        114020
#        130080
#
# Disc length: 1932 seconds
#
# Revision: 0
# Processed by: cddbd v1.5.2PL0 Copyright (c) Steve Scherf et al.
# Submitted via: ExactAudioCopy v0.99pb3
#
DISCID=5f078a08
DTITLE=Kip Anderson - A Dog Don't Wear No Shoes
DYEAR=1992
DGENRE=Blues
TTITLE0=Lonely Man
TTITLE1=A Dog Don't Wear No Shoes
TTITLE2=She Called Me Baby
TTITLE3=20 Room House
TTITLE4=Your Sweetness Is My Weakness
TTITLE5=I Need You So
TTITLE6=State Of Shock
TTITLE7=Wonderful
EXTD=
EXTT0=
EXTT1=
EXTT2=
EXTT3=
EXTT4=
EXTT5=
EXTT6=
EXTT7=
PLAYORDER=
